<svg id="Layer_1" xmlns="http://www.w3.org/2000/svg" width="226" height="60" viewBox="0 0 226 60"><style>.st0{fill:#32CB64;} .st1{fill:#888888;} .st2{fill:#E5E5E5;}</style><path class="st0" d="M47.4 47c-1 0-1.9-.5-2.5-1.3l-9.4-14 8.7-8.7c1.2-1.2 3.1-1.2 4.2 0 1.2 1.2 1.2 3.1 0 4.2l-5.3 5.3 6.6 10c.9 1.4.5 3.2-.8 4.2-.3.1-.9.3-1.5.3zM31.4 47c-1.7 0-3-1.3-3-3V15c0-1.7 1.3-3 3-3s3 1.3 3 3v29c0 1.7-1.3 3-3 3zM22.4 47c-1.7 0-3-1.3-3-3V25c0-1.7 1.3-3 3-3s3 1.3 3 3v19c0 1.7-1.3 3-3 3zM13.4 47c-1.7 0-3-1.3-3-3v-9c0-1.7 1.3-3 3-3s3 1.3 3 3v9c0 1.7-1.3 3-3 3z"/><g><path class="st1" d="M70.8 27c.5-.1 1.2-.3 2.1-.5.9-.2 2-.3 3.4-.3 1.8 0 3.2.5 4 1.6.1-.1.3-.2.5-.4s.6-.4 1-.5c.4-.2.9-.3 1.4-.5.6-.1 1.2-.2 1.8-.2 1.1 0 2 .2 2.7.5.7.3 1.2.8 1.6 1.4s.6 1.3.8 2.1c.1.8.2 1.7.2 2.7V41h-1.8v-7.5c0-1 0-1.8-.1-2.5s-.3-1.3-.5-1.7c-.3-.5-.6-.8-1.1-1-.5-.2-1.1-.4-1.8-.4-.6 0-1.1.1-1.5.2s-.9.2-1.2.4-.6.3-.8.4c-.2.1-.4.3-.5.3.2.5.3 1 .4 1.6.1.6.1 1.2.1 1.9V41h-1.8v-7.5c0-1 0-1.8-.1-2.5s-.3-1.3-.5-1.7c-.3-.5-.6-.8-1.1-1-.5-.2-1.1-.4-1.9-.4-.9 0-1.6 0-2.2.1-.6.1-1 .2-1.2.3V41h-1.8V27zM98 26.2c1 0 1.8.1 2.4.4.7.3 1.2.6 1.6 1.1.4.5.7 1 .9 1.7.2.7.3 1.4.3 2.1v9.1c-.2.1-.5.1-.8.2-.4.1-.8.1-1.2.2s-1 .1-1.6.2c-.6 0-1.2.1-1.8.1-.8 0-1.5-.1-2.1-.3-.6-.2-1.2-.4-1.7-.8s-.8-.8-1.1-1.4c-.3-.6-.4-1.3-.4-2.1s.1-1.5.4-2c.3-.6.7-1 1.3-1.4.5-.4 1.2-.6 1.9-.8.7-.2 1.6-.3 2.4-.3h.8c.3 0 .6.1.8.1.3 0 .5.1.7.1.2 0 .3.1.4.1v-.9c0-.5 0-1-.1-1.5s-.2-.9-.5-1.3-.6-.7-1.1-.9c-.5-.2-1.1-.4-1.8-.4-1.1 0-1.9.1-2.4.2s-.9.3-1.1.4l-.3-1.6c.3-.1.8-.3 1.5-.4.9.2 1.7.1 2.6.1zm.2 13.5c.7 0 1.3 0 1.9-.1.5 0 1-.1 1.4-.2v-5.1c-.2-.1-.5-.2-1-.3s-1.1-.2-1.8-.2c-.4 0-.9 0-1.4.1-.5.1-.9.2-1.3.4s-.7.5-1 .9c-.3.4-.4.9-.4 1.5 0 .5.1 1 .3 1.4.2.4.4.7.8.9.3.2.7.4 1.2.5.2.1.7.2 1.3.2zM110.1 33.1c.7.5 1.3 1 2 1.6s1.3 1.3 2 2 1.3 1.4 1.8 2.2 1.1 1.5 1.5 2.1h-2.2c-.4-.7-.9-1.5-1.5-2.2-.6-.7-1.2-1.4-1.8-2-.6-.6-1.3-1.2-1.9-1.7-.6-.5-1.2-.9-1.7-1.2v7h-1.8V19.6l1.8-.3v13.5c.4-.3.9-.8 1.5-1.4s1.2-1.2 1.8-1.7 1.2-1.1 1.7-1.7c.5-.5 1-1 1.3-1.4h2.2l-1.5 1.5-1.7 1.7-1.8 1.8s-1.2 1-1.7 1.5zM121.9 39.7c1 0 1.9-.2 2.6-.5.7-.3 1-.9 1-1.8 0-.4-.1-.7-.2-1s-.3-.5-.6-.8-.6-.4-1.1-.6c-.5-.2-1-.4-1.7-.7-.5-.2-1.1-.5-1.5-.7-.5-.2-.9-.5-1.3-.8-.4-.3-.7-.7-.9-1.1-.2-.4-.3-1-.3-1.6 0-1.2.4-2.1 1.3-2.9.9-.7 2.1-1.1 3.7-1.1 1 0 1.8.1 2.5.3.6.2 1.1.3 1.4.4l-.4 1.6c-.2-.1-.6-.3-1.1-.4-.5-.2-1.3-.3-2.3-.3-.4 0-.8 0-1.2.1s-.7.2-1 .4-.5.4-.7.7-.3.6-.3 1 .1.7.2 1c.1.3.4.5.7.7.3.2.6.4 1.1.6s.9.4 1.4.6c.6.2 1.1.5 1.6.7.5.2 1 .5 1.4.8.4.3.7.7 1 1.2.2.5.4 1 .4 1.7 0 1.3-.5 2.3-1.5 3-1 .7-2.3 1-4 1-1.3 0-2.2-.1-2.9-.3-.7-.2-1.1-.4-1.3-.5l.5-1.7c.1 0 .2.1.4.2s.4.2.8.3.7.2 1.1.3c.1.2.6.2 1.2.2zM128.6 33.7c0-1.3.2-2.4.5-3.3.4-.9.8-1.7 1.4-2.4.6-.6 1.3-1.1 2-1.4.8-.3 1.5-.5 2.3-.5 1.8 0 3.2.6 4.2 1.7 1.1 1.2 1.6 2.9 1.6 5.3v.8h-10.2c.1 1.8.5 3.1 1.3 4.1s2.1 1.4 3.9 1.4c1 0 1.8-.1 2.4-.3.6-.2 1-.3 1.3-.5l.3 1.6c-.3.1-.8.3-1.5.5s-1.6.3-2.5.3c-1.3 0-2.4-.2-3.2-.6-.9-.4-1.6-.9-2.2-1.6-.6-.7-1-1.5-1.3-2.4-.2-.5-.3-1.6-.3-2.7zm10.3-1.1c0-1.5-.4-2.7-1.1-3.5-.7-.8-1.6-1.3-2.9-1.3-.7 0-1.2.1-1.8.4-.5.3-1 .6-1.3 1s-.7.9-.9 1.5c-.2.6-.3 1.2-.4 1.8h8.4zM147.1 33.1c.7.5 1.3 1 2 1.6s1.3 1.3 2 2 1.3 1.4 1.8 2.2 1.1 1.5 1.5 2.1h-2.2c-.4-.7-.9-1.5-1.5-2.2-.6-.7-1.2-1.4-1.8-2-.6-.6-1.3-1.2-1.9-1.7-.6-.5-1.2-.9-1.7-1.2v7h-1.8V19.6l1.8-.3v13.5c.4-.3.9-.8 1.5-1.4s1.2-1.2 1.8-1.7 1.2-1.1 1.7-1.7c.5-.5 1-1 1.3-1.4h2.2l-1.5 1.5-1.7 1.7-1.8 1.8s-1.2 1-1.7 1.5zM154.6 33.7c0-1.3.2-2.4.5-3.3.4-.9.8-1.7 1.4-2.4.6-.6 1.3-1.1 2-1.4.8-.3 1.5-.5 2.3-.5 1.8 0 3.2.6 4.2 1.7 1.1 1.2 1.6 2.9 1.6 5.3v.8h-10.2c.1 1.8.5 3.1 1.3 4.1s2.1 1.4 3.9 1.4c1 0 1.8-.1 2.4-.3.6-.2 1-.3 1.3-.5l.3 1.6c-.3.1-.8.3-1.5.5s-1.6.3-2.5.3c-1.3 0-2.4-.2-3.2-.6-.9-.4-1.6-.9-2.2-1.6-.6-.7-1-1.5-1.3-2.4-.2-.5-.3-1.6-.3-2.7zm10.3-1.1c0-1.5-.4-2.7-1.1-3.5-.7-.8-1.6-1.3-2.9-1.3-.7 0-1.2.1-1.8.4-.5.3-1 .6-1.3 1s-.7.9-.9 1.5c-.2.6-.3 1.2-.4 1.8h8.4zM172.4 39.7c1 0 1.9-.2 2.6-.5.7-.3 1-.9 1-1.8 0-.4-.1-.7-.2-1s-.3-.5-.6-.8-.6-.4-1.1-.6c-.5-.2-1-.4-1.7-.7-.5-.2-1.1-.5-1.5-.7-.5-.2-.9-.5-1.3-.8-.4-.3-.7-.7-.9-1.1-.2-.4-.3-1-.3-1.6 0-1.2.4-2.1 1.3-2.9.9-.7 2.1-1.1 3.7-1.1 1 0 1.8.1 2.5.3.6.2 1.1.3 1.4.4l-.4 1.6c-.2-.1-.6-.3-1.1-.4-.5-.2-1.3-.3-2.3-.3-.4 0-.8 0-1.2.1s-.7.2-1 .4-.5.4-.7.7-.3.6-.3 1 .1.7.2 1c.1.3.4.5.7.7.3.2.6.4 1.1.6s.9.4 1.4.6c.6.2 1.1.5 1.6.7.5.2 1 .5 1.4.8.4.3.7.7 1 1.2.2.5.4 1 .4 1.7 0 1.3-.5 2.3-1.5 3-1 .7-2.3 1-4 1-1.3 0-2.2-.1-2.9-.3-.7-.2-1.1-.4-1.3-.5l.5-1.7c.1 0 .2.1.4.2s.4.2.8.3.7.2 1.1.3c.1.2.6.2 1.2.2zM183.6 33.1c.7.5 1.3 1 2 1.6s1.3 1.3 2 2 1.3 1.4 1.8 2.2 1.1 1.5 1.5 2.1h-2.2c-.4-.7-.9-1.5-1.5-2.2-.6-.7-1.2-1.4-1.8-2-.6-.6-1.3-1.2-1.9-1.7-.6-.5-1.2-.9-1.7-1.2v7H180V19.6l1.8-.3v13.5c.4-.3.9-.8 1.5-1.4s1.2-1.2 1.8-1.7 1.2-1.1 1.7-1.7c.5-.5 1-1 1.3-1.4h2.2l-1.5 1.5-1.7 1.7-1.8 1.8s-1.1 1-1.7 1.5zM203.6 40.5c-.5.1-1.3.3-2.2.5-.9.2-2 .3-3.4.3-1.1 0-2-.2-2.7-.5-.7-.3-1.3-.8-1.8-1.3s-.8-1.3-1-2.1c-.2-.8-.3-1.7-.3-2.7v-8.1h1.8v7.5c0 1 .1 1.9.2 2.6.1.7.4 1.3.7 1.7s.8.8 1.3 1c.5.2 1.2.3 1.9.3.9 0 1.6 0 2.2-.1.6-.1 1-.2 1.2-.3V26.5h1.8v14zM210 39.7c1 0 1.9-.2 2.6-.5.7-.3 1-.9 1-1.8 0-.4-.1-.7-.2-1s-.3-.5-.6-.8-.6-.4-1.1-.6c-.5-.2-1-.4-1.7-.7-.5-.2-1.1-.5-1.5-.7-.5-.2-.9-.5-1.3-.8-.4-.3-.7-.7-.9-1.1-.2-.4-.3-1-.3-1.6 0-1.2.4-2.1 1.3-2.9.9-.7 2.1-1.1 3.7-1.1 1 0 1.8.1 2.5.3.6.2 1.1.3 1.4.4l-.4 1.6c-.2-.1-.6-.3-1.1-.4-.5-.2-1.3-.3-2.3-.3-.4 0-.8 0-1.2.1s-.7.2-1 .4-.5.4-.7.7-.3.6-.3 1 .1.7.2 1c.1.3.4.5.7.7.3.2.6.4 1.1.6s.9.4 1.4.6c.6.2 1.1.5 1.6.7.5.2 1 .5 1.4.8.4.3.7.7 1 1.2.2.5.4 1 .4 1.7 0 1.3-.5 2.3-1.5 3-1 .7-2.3 1-4 1-1.3 0-2.2-.1-2.9-.3-.7-.2-1.1-.4-1.3-.5l.5-1.7c.1 0 .2.1.4.2s.4.2.8.3.7.2 1.1.3c.1.2.6.2 1.2.2z"/></g><path class="st2" d="M59.4 10h1v40h-1z"/></svg>